<mxfile host="app.diagrams.net" agent="Mozilla/5.0 (Windows NT 10.0; Win64; x64) AppleWebKit/537.36 (KHTML, like Gecko) Chrome/140.0.0.0 Safari/537.36" version="28.2.5">
  <diagram name="Page-1" id="TQbOudh795_DHU1F4wFf">
    <mxGraphModel dx="2308" dy="988" grid="1" gridSize="10" guides="1" tooltips="1" connect="1" arrows="1" fold="1" page="1" pageScale="1" pageWidth="850" pageHeight="1100" math="0" shadow="0">
      <root>
        <mxCell id="0" />
        <mxCell id="1" parent="0" />
        <mxCell id="jvYvhsIFIpIQuHa4VLG5-77" value="&lt;font style=&quot;font-size: 24px;&quot;&gt;&lt;b&gt;QuickShip Rider WorkFlow&lt;/b&gt;&lt;/font&gt;" style="whiteSpace=wrap;html=1;strokeColor=#E07A5F;fontColor=#393C56;fillColor=#F2CC8F;" vertex="1" parent="1">
          <mxGeometry x="630" y="66" width="290" height="60" as="geometry" />
        </mxCell>
        <mxCell id="jvYvhsIFIpIQuHa4VLG5-6" value="" style="edgeStyle=orthogonalEdgeStyle;rounded=0;orthogonalLoop=1;jettySize=auto;html=1;fontSize=16;labelBackgroundColor=none;fontColor=default;strokeColor=#E07A5F;" edge="1" parent="1" source="jvYvhsIFIpIQuHa4VLG5-1" target="jvYvhsIFIpIQuHa4VLG5-5">
          <mxGeometry relative="1" as="geometry" />
        </mxCell>
        <mxCell id="jvYvhsIFIpIQuHa4VLG5-1" value="&lt;div&gt;&lt;span style=&quot;background-color: transparent;&quot;&gt;Start&lt;/span&gt;&lt;/div&gt;" style="ellipse;whiteSpace=wrap;html=1;fontSize=16;labelBackgroundColor=none;fillColor=#F2CC8F;strokeColor=#E07A5F;fontColor=#393C56;" vertex="1" parent="1">
          <mxGeometry x="225" y="217" width="132.23300970873785" height="80" as="geometry" />
        </mxCell>
        <mxCell id="jvYvhsIFIpIQuHa4VLG5-15" value="" style="edgeStyle=orthogonalEdgeStyle;rounded=0;orthogonalLoop=1;jettySize=auto;html=1;entryX=0;entryY=0.5;entryDx=0;entryDy=0;fontSize=16;labelBackgroundColor=none;fontColor=default;strokeColor=#E07A5F;" edge="1" parent="1" source="jvYvhsIFIpIQuHa4VLG5-5" target="jvYvhsIFIpIQuHa4VLG5-7">
          <mxGeometry relative="1" as="geometry">
            <mxPoint x="687.8155339805826" y="257" as="targetPoint" />
          </mxGeometry>
        </mxCell>
        <mxCell id="jvYvhsIFIpIQuHa4VLG5-5" value="Login/Signup" style="rounded=1;whiteSpace=wrap;html=1;fontSize=16;labelBackgroundColor=none;fillColor=#F2CC8F;strokeColor=#E07A5F;fontColor=#393C56;" vertex="1" parent="1">
          <mxGeometry x="445.38834951456306" y="227" width="132.23300970873785" height="60" as="geometry" />
        </mxCell>
        <mxCell id="jvYvhsIFIpIQuHa4VLG5-17" value="" style="edgeStyle=orthogonalEdgeStyle;rounded=0;orthogonalLoop=1;jettySize=auto;html=1;fontSize=16;labelBackgroundColor=none;fontColor=default;strokeColor=#E07A5F;" edge="1" parent="1" source="jvYvhsIFIpIQuHa4VLG5-7" target="jvYvhsIFIpIQuHa4VLG5-16">
          <mxGeometry relative="1" as="geometry" />
        </mxCell>
        <mxCell id="jvYvhsIFIpIQuHa4VLG5-72" value="Yes" style="edgeLabel;html=1;align=center;verticalAlign=middle;resizable=0;points=[];strokeColor=#E07A5F;fontColor=#393C56;fillColor=#F2CC8F;" vertex="1" connectable="0" parent="jvYvhsIFIpIQuHa4VLG5-17">
          <mxGeometry x="-0.4889" y="-2" relative="1" as="geometry">
            <mxPoint as="offset" />
          </mxGeometry>
        </mxCell>
        <mxCell id="jvYvhsIFIpIQuHa4VLG5-7" value="Authentication Successful" style="rhombus;whiteSpace=wrap;html=1;rounded=1;fontSize=16;labelBackgroundColor=none;fillColor=#F2CC8F;strokeColor=#E07A5F;fontColor=#393C56;" vertex="1" parent="1">
          <mxGeometry x="709.8543689320388" y="207" width="242.4271844660194" height="100" as="geometry" />
        </mxCell>
        <mxCell id="jvYvhsIFIpIQuHa4VLG5-9" value="" style="endArrow=classic;html=1;rounded=0;entryX=1;entryY=0.75;entryDx=0;entryDy=0;exitX=0;exitY=0.5;exitDx=0;exitDy=0;fontSize=16;labelBackgroundColor=none;fontColor=default;strokeColor=#E07A5F;" edge="1" parent="1" source="jvYvhsIFIpIQuHa4VLG5-7" target="jvYvhsIFIpIQuHa4VLG5-5">
          <mxGeometry width="50" height="50" relative="1" as="geometry">
            <mxPoint x="698.8349514563106" y="247" as="sourcePoint" />
            <mxPoint x="753.9320388349514" y="197" as="targetPoint" />
            <Array as="points">
              <mxPoint x="654.7572815533981" y="297" />
            </Array>
          </mxGeometry>
        </mxCell>
        <mxCell id="jvYvhsIFIpIQuHa4VLG5-71" value="NO" style="edgeLabel;html=1;align=center;verticalAlign=middle;resizable=0;points=[];strokeColor=#E07A5F;fontColor=#393C56;fillColor=#F2CC8F;" vertex="1" connectable="0" parent="jvYvhsIFIpIQuHa4VLG5-9">
          <mxGeometry x="-0.3103" y="1" relative="1" as="geometry">
            <mxPoint as="offset" />
          </mxGeometry>
        </mxCell>
        <mxCell id="jvYvhsIFIpIQuHa4VLG5-20" value="" style="edgeStyle=orthogonalEdgeStyle;rounded=0;orthogonalLoop=1;jettySize=auto;html=1;fontSize=16;labelBackgroundColor=none;fontColor=default;strokeColor=#E07A5F;" edge="1" parent="1" source="jvYvhsIFIpIQuHa4VLG5-16" target="jvYvhsIFIpIQuHa4VLG5-19">
          <mxGeometry relative="1" as="geometry" />
        </mxCell>
        <mxCell id="jvYvhsIFIpIQuHa4VLG5-16" value="Update status RiderAvailability to ON_DUTY&lt;div&gt;&lt;/div&gt;" style="rounded=1;fontStyle=0;html=1;whiteSpace=wrap;fontSize=16;labelBackgroundColor=none;fillColor=#F2CC8F;strokeColor=#E07A5F;fontColor=#393C56;" vertex="1" parent="1">
          <mxGeometry x="1084.5145631067962" y="207" width="143.252427184466" height="80" as="geometry" />
        </mxCell>
        <mxCell id="jvYvhsIFIpIQuHa4VLG5-22" value="" style="edgeStyle=orthogonalEdgeStyle;rounded=0;orthogonalLoop=1;jettySize=auto;html=1;fontSize=16;labelBackgroundColor=none;fontColor=default;strokeColor=#E07A5F;" edge="1" parent="1" source="jvYvhsIFIpIQuHa4VLG5-19" target="jvYvhsIFIpIQuHa4VLG5-21">
          <mxGeometry relative="1" as="geometry" />
        </mxCell>
        <mxCell id="jvYvhsIFIpIQuHa4VLG5-19" value="System Sends PENDING Assignment Notification" style="rounded=1;whiteSpace=wrap;html=1;fontStyle=0;fontSize=16;labelBackgroundColor=none;fillColor=#F2CC8F;strokeColor=#E07A5F;fontColor=#393C56;" vertex="1" parent="1">
          <mxGeometry x="1110" y="390" width="250" height="110" as="geometry" />
        </mxCell>
        <mxCell id="jvYvhsIFIpIQuHa4VLG5-24" value="" style="edgeStyle=orthogonalEdgeStyle;rounded=0;orthogonalLoop=1;jettySize=auto;html=1;fontSize=16;labelBackgroundColor=none;fontColor=default;strokeColor=#E07A5F;" edge="1" parent="1" source="jvYvhsIFIpIQuHa4VLG5-21" target="jvYvhsIFIpIQuHa4VLG5-23">
          <mxGeometry relative="1" as="geometry" />
        </mxCell>
        <mxCell id="jvYvhsIFIpIQuHa4VLG5-21" value="Rider ACCEPTS Assignment/Call" style="rounded=1;whiteSpace=wrap;html=1;fontStyle=0;fontSize=16;labelBackgroundColor=none;fillColor=#F2CC8F;strokeColor=#E07A5F;fontColor=#393C56;" vertex="1" parent="1">
          <mxGeometry x="1061.1000000000001" y="550" width="230.58" height="63" as="geometry" />
        </mxCell>
        <mxCell id="jvYvhsIFIpIQuHa4VLG5-26" value="" style="edgeStyle=orthogonalEdgeStyle;rounded=0;orthogonalLoop=1;jettySize=auto;html=1;fontSize=16;labelBackgroundColor=none;fontColor=default;strokeColor=#E07A5F;" edge="1" parent="1" source="jvYvhsIFIpIQuHa4VLG5-23" target="jvYvhsIFIpIQuHa4VLG5-25">
          <mxGeometry relative="1" as="geometry" />
        </mxCell>
        <mxCell id="jvYvhsIFIpIQuHa4VLG5-23" value="Status ACCEPTED" style="rounded=1;whiteSpace=wrap;html=1;fontStyle=0;fontSize=16;labelBackgroundColor=none;fillColor=#F2CC8F;strokeColor=#E07A5F;fontColor=#393C56;" vertex="1" parent="1">
          <mxGeometry x="778.7257281553398" y="517" width="132.23300970873785" height="60" as="geometry" />
        </mxCell>
        <mxCell id="jvYvhsIFIpIQuHa4VLG5-28" value="" style="edgeStyle=orthogonalEdgeStyle;rounded=0;orthogonalLoop=1;jettySize=auto;html=1;fontSize=16;labelBackgroundColor=none;fontColor=default;strokeColor=#E07A5F;" edge="1" parent="1" source="jvYvhsIFIpIQuHa4VLG5-25" target="jvYvhsIFIpIQuHa4VLG5-27">
          <mxGeometry relative="1" as="geometry" />
        </mxCell>
        <mxCell id="jvYvhsIFIpIQuHa4VLG5-25" value="Navigate to Pickup Location" style="rounded=1;whiteSpace=wrap;html=1;fontStyle=0;fontSize=16;labelBackgroundColor=none;fillColor=#F2CC8F;strokeColor=#E07A5F;fontColor=#393C56;" vertex="1" parent="1">
          <mxGeometry x="511.504854368932" y="487" width="198.3495145631068" height="90" as="geometry" />
        </mxCell>
        <mxCell id="jvYvhsIFIpIQuHa4VLG5-30" value="" style="edgeStyle=orthogonalEdgeStyle;rounded=0;orthogonalLoop=1;jettySize=auto;html=1;fontSize=16;labelBackgroundColor=none;fontColor=default;strokeColor=#E07A5F;" edge="1" parent="1" source="jvYvhsIFIpIQuHa4VLG5-27" target="jvYvhsIFIpIQuHa4VLG5-29">
          <mxGeometry relative="1" as="geometry" />
        </mxCell>
        <mxCell id="jvYvhsIFIpIQuHa4VLG5-27" value="Confirm PICKUP vis OTP" style="rounded=1;whiteSpace=wrap;html=1;fontStyle=0;fontSize=16;labelBackgroundColor=none;fillColor=#F2CC8F;strokeColor=#E07A5F;fontColor=#393C56;" vertex="1" parent="1">
          <mxGeometry x="267.7002427184466" y="487" width="132.23300970873785" height="90" as="geometry" />
        </mxCell>
        <mxCell id="jvYvhsIFIpIQuHa4VLG5-32" value="" style="edgeStyle=orthogonalEdgeStyle;rounded=0;orthogonalLoop=1;jettySize=auto;html=1;fontSize=16;labelBackgroundColor=none;fontColor=default;strokeColor=#E07A5F;" edge="1" parent="1" source="jvYvhsIFIpIQuHa4VLG5-29" target="jvYvhsIFIpIQuHa4VLG5-31">
          <mxGeometry relative="1" as="geometry" />
        </mxCell>
        <mxCell id="jvYvhsIFIpIQuHa4VLG5-29" value="Status: PICKED_UP / IN_TRANSIT" style="rounded=1;whiteSpace=wrap;html=1;fontStyle=0;fontSize=16;labelBackgroundColor=none;fillColor=#F2CC8F;strokeColor=#E07A5F;fontColor=#393C56;" vertex="1" parent="1">
          <mxGeometry x="225" y="657" width="174.93325242718447" height="70" as="geometry" />
        </mxCell>
        <mxCell id="jvYvhsIFIpIQuHa4VLG5-34" value="" style="edgeStyle=orthogonalEdgeStyle;rounded=0;orthogonalLoop=1;jettySize=auto;html=1;fontSize=16;labelBackgroundColor=none;fontColor=default;strokeColor=#E07A5F;" edge="1" parent="1" source="jvYvhsIFIpIQuHa4VLG5-31" target="jvYvhsIFIpIQuHa4VLG5-33">
          <mxGeometry relative="1" as="geometry" />
        </mxCell>
        <mxCell id="jvYvhsIFIpIQuHa4VLG5-31" value="Navigate to Drop-off Location" style="rounded=1;whiteSpace=wrap;html=1;fontStyle=0;fontSize=16;labelBackgroundColor=none;fillColor=#F2CC8F;strokeColor=#E07A5F;fontColor=#393C56;" vertex="1" parent="1">
          <mxGeometry x="488.0885922330097" y="657" width="132.23300970873785" height="60" as="geometry" />
        </mxCell>
        <mxCell id="jvYvhsIFIpIQuHa4VLG5-36" value="" style="edgeStyle=orthogonalEdgeStyle;rounded=0;orthogonalLoop=1;jettySize=auto;html=1;fontSize=16;labelBackgroundColor=none;fontColor=default;strokeColor=#E07A5F;" edge="1" parent="1" source="jvYvhsIFIpIQuHa4VLG5-33" target="jvYvhsIFIpIQuHa4VLG5-35">
          <mxGeometry relative="1" as="geometry" />
        </mxCell>
        <mxCell id="jvYvhsIFIpIQuHa4VLG5-33" value="Confirm DELIVERRY via OTP" style="rounded=1;whiteSpace=wrap;html=1;fontStyle=0;fontSize=16;labelBackgroundColor=none;fillColor=#F2CC8F;strokeColor=#E07A5F;fontColor=#393C56;" vertex="1" parent="1">
          <mxGeometry x="708.4769417475728" y="657" width="132.23300970873785" height="60" as="geometry" />
        </mxCell>
        <mxCell id="jvYvhsIFIpIQuHa4VLG5-40" value="" style="edgeStyle=orthogonalEdgeStyle;rounded=0;orthogonalLoop=1;jettySize=auto;html=1;fontSize=16;labelBackgroundColor=none;fontColor=default;strokeColor=#E07A5F;" edge="1" parent="1" source="jvYvhsIFIpIQuHa4VLG5-35" target="jvYvhsIFIpIQuHa4VLG5-39">
          <mxGeometry relative="1" as="geometry" />
        </mxCell>
        <mxCell id="jvYvhsIFIpIQuHa4VLG5-35" value="Status : DELIVERED" style="rounded=1;whiteSpace=wrap;html=1;fontStyle=0;fontSize=16;labelBackgroundColor=none;fillColor=#F2CC8F;strokeColor=#E07A5F;fontColor=#393C56;" vertex="1" parent="1">
          <mxGeometry x="928.8652912621359" y="662" width="199.7269417475728" height="60" as="geometry" />
        </mxCell>
        <mxCell id="jvYvhsIFIpIQuHa4VLG5-39" value="Handle Payment Collection / Recording&lt;div&gt;&lt;/div&gt;" style="whiteSpace=wrap;html=1;rounded=1;fontStyle=0;fontSize=16;labelBackgroundColor=none;fillColor=#F2CC8F;strokeColor=#E07A5F;fontColor=#393C56;" vertex="1" parent="1">
          <mxGeometry x="928.8652912621359" y="797" width="132.23300970873785" height="60" as="geometry" />
        </mxCell>
        <mxCell id="jvYvhsIFIpIQuHa4VLG5-44" value="" style="edgeStyle=orthogonalEdgeStyle;rounded=0;orthogonalLoop=1;jettySize=auto;html=1;fontSize=16;labelBackgroundColor=none;fontColor=default;strokeColor=#E07A5F;exitX=0.25;exitY=1;exitDx=0;exitDy=0;entryX=0.25;entryY=0;entryDx=0;entryDy=0;" edge="1" parent="1" source="jvYvhsIFIpIQuHa4VLG5-39" target="jvYvhsIFIpIQuHa4VLG5-43">
          <mxGeometry relative="1" as="geometry">
            <mxPoint x="887.055922330097" y="972" as="sourcePoint" />
            <mxPoint x="810.004764749813" y="1087" as="targetPoint" />
          </mxGeometry>
        </mxCell>
        <mxCell id="jvYvhsIFIpIQuHa4VLG5-48" value="" style="edgeStyle=orthogonalEdgeStyle;rounded=0;orthogonalLoop=1;jettySize=auto;html=1;fontSize=16;labelBackgroundColor=none;fontColor=default;strokeColor=#E07A5F;" edge="1" parent="1" source="jvYvhsIFIpIQuHa4VLG5-43" target="jvYvhsIFIpIQuHa4VLG5-47">
          <mxGeometry relative="1" as="geometry">
            <Array as="points">
              <mxPoint x="1007.378640776699" y="1117" />
            </Array>
          </mxGeometry>
        </mxCell>
        <mxCell id="jvYvhsIFIpIQuHa4VLG5-43" value="Transaction &amp;amp; Earnings Ledger Updated" style="rounded=1;whiteSpace=wrap;html=1;fontStyle=0;fontSize=16;labelBackgroundColor=none;fillColor=#F2CC8F;strokeColor=#E07A5F;fontColor=#393C56;" vertex="1" parent="1">
          <mxGeometry x="952.283203883495" y="950" width="132.23300970873785" height="60" as="geometry" />
        </mxCell>
        <mxCell id="jvYvhsIFIpIQuHa4VLG5-85" value="St" style="edgeStyle=orthogonalEdgeStyle;rounded=0;orthogonalLoop=1;jettySize=auto;html=1;strokeColor=#E07A5F;fontColor=#393C56;fillColor=#F2CC8F;" edge="1" parent="1" source="jvYvhsIFIpIQuHa4VLG5-47" target="jvYvhsIFIpIQuHa4VLG5-84">
          <mxGeometry relative="1" as="geometry" />
        </mxCell>
        <mxCell id="jvYvhsIFIpIQuHa4VLG5-47" value="View Updated Earning" style="whiteSpace=wrap;html=1;rounded=1;fontStyle=0;fontSize=16;labelBackgroundColor=none;fillColor=#F2CC8F;strokeColor=#E07A5F;fontColor=#393C56;" vertex="1" parent="1">
          <mxGeometry x="899.9412621359223" y="1070" width="236.91747572815532" height="60" as="geometry" />
        </mxCell>
        <mxCell id="jvYvhsIFIpIQuHa4VLG5-84" value="Stop" style="ellipse;whiteSpace=wrap;html=1;fontSize=16;fillColor=#F2CC8F;strokeColor=#E07A5F;fontColor=#393C56;rounded=1;fontStyle=0;labelBackgroundColor=none;" vertex="1" parent="1">
          <mxGeometry x="978.4" y="1200" width="80" height="80" as="geometry" />
        </mxCell>
      </root>
    </mxGraphModel>
  </diagram>
</mxfile>
